<svg class="animated" id="freepik_stories-ecommerce-campaign" xmlns="http://www.w3.org/2000/svg" viewBox="0 0 500 500" version="1.1" xmlns:xlink="http://www.w3.org/1999/xlink" xmlns:svgjs="http://svgjs.com/svgjs"><style>svg#freepik_stories-ecommerce-campaign:not(.animated) .animable {opacity: 0;}svg#freepik_stories-ecommerce-campaign.animated #freepik--Cart--inject-15 {animation: 1.5s Infinite  linear floating;animation-delay: 0s;}svg#freepik_stories-ecommerce-campaign.animated #freepik--Device--inject-15 {animation: 1.5s Infinite  linear floating;animation-delay: 0s;}svg#freepik_stories-ecommerce-campaign.animated #freepik--Character--inject-15 {animation: 1s 1 forwards cubic-bezier(.36,-0.01,.5,1.38) slideDown;animation-delay: 0s;}svg#freepik_stories-ecommerce-campaign.animated #freepik--Bags--inject-15 {animation: 1.5s Infinite  linear floating;animation-delay: 0s;}            @keyframes floating {                0% {                    opacity: 1;                    transform: translateY(0px);                }                50% {                    transform: translateY(-10px);                }                100% {                    opacity: 1;                    transform: translateY(0px);                }            }                    @keyframes slideDown {                0% {                    opacity: 0;                    transform: translateY(-30px);                }                100% {                    opacity: 1;                    transform: translateY(0);                }            }        </style><g id="freepik--background-complete--inject-15" class="animable" style="transform-origin: 250.445px 160.675px;"><g id="el7e718eg4or"><circle cx="126.14" cy="133.29" r="47.35" style="fill: rgb(235, 235, 235); transform-origin: 126.14px 133.29px; transform: rotate(-6.94deg);" class="animable"></circle></g><g id="elppqajbssdbi"><circle cx="126.14" cy="133.29" r="36.15" style="fill: rgb(255, 255, 255); transform-origin: 126.14px 133.29px; transform: rotate(-45deg);" class="animable"></circle></g><circle cx="126.14" cy="133.29" r="25.83" style="fill: rgb(235, 235, 235); transform-origin: 126.14px 133.29px;" id="elw7nwztkxmys" class="animable"></circle><g id="el8u8hgjbveer"><circle cx="126.14" cy="133.29" r="14.28" style="fill: rgb(255, 255, 255); transform-origin: 126.14px 133.29px; transform: rotate(-13.37deg);" class="animable"></circle></g><path d="M119.69,133.29a6.45,6.45,0,1,0,6.45-6.46A6.45,6.45,0,0,0,119.69,133.29Z" style="fill: rgb(235, 235, 235); transform-origin: 126.14px 133.28px;" id="el3x6rbtgq42k" class="animable"></path><g id="elqmq8x53h8ip"><rect x="90.29" y="55.21" width="2.08" height="86.54" style="fill: rgb(166, 166, 166); transform-origin: 91.33px 98.48px; transform: rotate(-45deg);" class="animable"></rect></g><polygon points="118.14 131.14 126.14 133.29 124 125.29 118.14 131.14" style="fill: rgb(166, 166, 166); transform-origin: 122.14px 129.29px;" id="elgxxaio2kbeg" class="animable"></polygon><polygon points="50.5 63.9 61.97 75.37 70.97 78.12 68.22 69.12 56.75 57.64 59.5 66.64 50.5 63.9" style="fill: rgb(166, 166, 166); transform-origin: 60.735px 67.88px;" id="elknf2jlwtsjm" class="animable"></polygon><polygon points="338.07 55.39 341.39 60.34 347.13 61.97 343.45 66.65 343.67 72.61 338.07 70.56 332.48 72.61 332.7 66.65 329.02 61.97 334.75 60.34 338.07 55.39" style="fill: rgb(235, 235, 235); transform-origin: 338.075px 64px;" id="elqor285c93o9" class="animable"></polygon><polygon points="363.67 55.39 366.99 60.34 372.72 61.97 369.04 66.65 369.26 72.61 363.67 70.56 358.08 72.61 358.3 66.65 354.62 61.97 360.35 60.34 363.67 55.39" style="fill: rgb(235, 235, 235); transform-origin: 363.67px 64px;" id="elstwmba99a0q" class="animable"></polygon><polygon points="389.26 55.39 392.58 60.34 398.31 61.97 394.63 66.65 394.86 72.61 389.26 70.56 383.67 72.61 383.89 66.65 380.21 61.97 385.94 60.34 389.26 55.39" style="fill: rgb(235, 235, 235); transform-origin: 389.26px 64px;" id="el1gnlgp2a53j" class="animable"></polygon><polygon points="414.86 55.39 418.18 60.34 423.91 61.97 420.23 66.65 420.45 72.61 414.86 70.56 409.26 72.61 409.49 66.65 405.81 61.97 411.54 60.34 414.86 55.39" style="fill: rgb(235, 235, 235); transform-origin: 414.86px 64px;" id="elryrstuaol6" class="animable"></polygon><path d="M434.33,73.33l.25-6.51-4-5.13,6.27-1.78,3.63-5.42,3.64,5.42,6.27,1.78-4,5.13.24,6.51-6.12-2.24ZM440.45,70l5.07,1.86-.2-5.39,3.33-4.25-5.19-1.47-3-4.48-3,4.48-5.19,1.47,3.33,4.25-.2,5.39Z" style="fill: rgb(235, 235, 235); transform-origin: 440.485px 63.91px;" id="elmcul4w1v93" class="animable"></path><polygon points="440.45 70.56 440.45 55.39 437.13 60.34 431.4 61.97 435.08 66.65 434.86 72.61 440.45 70.56" style="fill: rgb(235, 235, 235); transform-origin: 435.925px 64px;" id="ely9xdlm5lrrh" class="animable"></polygon><g id="freepik--xsrjP0--inject-15" class="animable" style="transform-origin: 414.918px 240.027px;"><path d="M408.49,264.39c-1.27-.79-2.38-1.94-4.07-1.77-.65.07-.51-.47-.51-.83q0-9.56-.08-19.1c0-.46,0-.85.53-1.1,4.86-2.47,6.95-7.3,9.92-11.44a19.08,19.08,0,0,0,3.48-14.46c-.21-1.43.45-2.08,1.74-2.37,1.56-.36,3.11.06,3.64,1.13a25.57,25.57,0,0,1,2.81,8.33c.29,2.42-.57,4.77-.86,7.16-.22,1.75-.62,3.48-.95,5.25.43.31.92.15,1.38.16l16.14,0c2.27,0,3.38.64,3.7,2.14a4.31,4.31,0,0,1-2.32,4.67c-.41.21-1.13,0-1.18.66s.7.57,1.07.83c2,1.33,1.6,4.08-.64,5.69-.55.38-1.6.2-1.62,1,0,.63,1,.62,1.42,1.07,1.58,1.55.81,4.45-1.54,5.63a7.06,7.06,0,0,0-.94.37c-.27.18-.53.38,0,.75,2.33,1.65,2.29,4-.05,5.67l-.7.5a4.49,4.49,0,0,1-2.83.63q-12.66.07-25.31.09A3,3,0,0,1,408.49,264.39Z" style="fill: rgb(235, 235, 235); fill-rule: evenodd; transform-origin: 424.633px 239.131px;" id="el2leh87hqvcz" class="animable"></path><path d="M384.46,253.24c0-4,0-8.09-.06-12.14,0-.82.08-1.23,1.09-1.22q7.41.08,14.8,0c1,0,1.12.32,1.12,1.18q0,12.21.08,24.42c0,1-.27,1.33-1.31,1.32-4.78,0-9.57,0-14.36.06-1.19,0-1.35-.4-1.34-1.44C384.52,261.33,384.47,257.29,384.46,253.24Z" style="fill: rgb(235, 235, 235); fill-rule: evenodd; transform-origin: 392.945px 253.37px;" id="eld1g7cu4vk4" class="animable"></path></g></g><g id="freepik--Cart--inject-15" class="animable" style="transform-origin: 145.788px 346.437px;"><path d="M197.71,446.94h-131a2.62,2.62,0,0,1-2.62-2.62V428.71h0c0-.05,0-.1,0-.15s0-.18,0-.28L80,370.13,59.49,243l-6.85-2.38a2.62,2.62,0,0,1,1.47-5l8.45,2.85a2.61,2.61,0,0,1,1.85,2.12l20.84,129.2a2.36,2.36,0,0,1,0,.88L69.87,426.39l122,8.67a2.66,2.66,0,0,1,1.77.85l6,6.66a2.62,2.62,0,0,1-1.94,4.37ZM69.36,441.71H191.81l-1.35-1.5L69.36,431.6Z" style="fill: rgb(199, 199, 199); transform-origin: 125.663px 341.258px;" id="elnl91ctxhbv7" class="animable"></path><path d="M245.66,284.31H69.12a2.62,2.62,0,1,1,0-5.23H245.66a2.62,2.62,0,1,1,0,5.23Z" style="fill: rgb(199, 199, 199); transform-origin: 157.39px 281.695px;" id="el17l8i996n6p" class="animable"></path><path d="M82.66,371.06a.88.88,0,0,1,0-1.75l132.62-7.09,26.11-80.79a.87.87,0,0,1,1.1-.56A.86.86,0,0,1,243,282l-26.3,81.36a.87.87,0,0,1-.78.61L82.71,371.05Z" style="fill: rgb(199, 199, 199); transform-origin: 162.468px 325.943px;" id="elc5inbs04y6" class="animable"></path><path d="M218.16,356.64H80.24a.87.87,0,1,1,0-1.74H218.16a.87.87,0,0,1,0,1.74Z" style="fill: rgb(199, 199, 199); transform-origin: 149.195px 355.77px;" id="elelsilyih9ue" class="animable"></path><path d="M221.67,346H78.61a.87.87,0,0,1,0-1.74H221.67a.87.87,0,0,1,0,1.74Z" style="fill: rgb(199, 199, 199); transform-origin: 150.14px 345.13px;" id="elcfy9o0043te" class="animable"></path><path d="M224.91,335.43H77a.88.88,0,0,1,0-1.75H224.91a.88.88,0,1,1,0,1.75Z" style="fill: rgb(199, 199, 199); transform-origin: 151.049px 334.555px;" id="eljnj1yfqf6k" class="animable"></path><path d="M228.43,324.82H75.37a.88.88,0,1,1,0-1.75H228.43a.88.88,0,0,1,0,1.75Z" style="fill: rgb(199, 199, 199); transform-origin: 151.806px 323.945px;" id="elr1jy352ay2" class="animable"></path><path d="M231.78,314.21h-158a.87.87,0,1,1,0-1.74h158a.87.87,0,1,1,0,1.74Z" style="fill: rgb(199, 199, 199); transform-origin: 152.78px 313.34px;" id="elf5v84v5pkel" class="animable"></path><path d="M235.38,303.6H72.12a.87.87,0,0,1,0-1.74H235.38a.87.87,0,0,1,0,1.74Z" style="fill: rgb(199, 199, 199); transform-origin: 153.75px 302.73px;" id="elpq8lj687iq" class="animable"></path><path d="M238.81,293H70.5a.87.87,0,1,1,0-1.74H238.81a.87.87,0,1,1,0,1.74Z" style="fill: rgb(199, 199, 199); transform-origin: 154.655px 292.13px;" id="eltnn77v7vda9" class="animable"></path><path d="M94.57,370a.87.87,0,0,1-.87-.81L87,281.76a.86.86,0,0,1,.8-.93.89.89,0,0,1,.94.8L95.44,369a.87.87,0,0,1-.8.93Z" style="fill: rgb(199, 199, 199); transform-origin: 91.2196px 325.414px;" id="elablqtiatoni" class="animable"></path><path d="M202.7,364.25a.83.83,0,0,1-.22,0,.88.88,0,0,1-.62-1.07l22.21-81.68a.88.88,0,0,1,1.07-.62.87.87,0,0,1,.61,1.07l-22.2,81.68A.89.89,0,0,1,202.7,364.25Z" style="fill: rgb(199, 199, 199); transform-origin: 213.806px 322.555px;" id="el02sxmarazmm3" class="animable"></path><path d="M108.5,369.3a.88.88,0,0,1-.87-.86l-2.16-86.72a.89.89,0,0,1,.85-.9h0a.88.88,0,0,1,.88.85l2.15,86.73a.88.88,0,0,1-.85.9Z" style="fill: rgb(199, 199, 199); transform-origin: 107.41px 325.06px;" id="elot3ogu93t4" class="animable"></path><path d="M122.8,368.52h0a.87.87,0,0,1-.85-.89l1.6-85.95a.88.88,0,0,1,.87-.86h0a.87.87,0,0,1,.85.89l-1.6,86A.87.87,0,0,1,122.8,368.52Z" style="fill: rgb(199, 199, 199); transform-origin: 123.61px 324.67px;" id="el3p0kd6j7hl4" class="animable"></path><path d="M187.48,364.93l-.17,0a.86.86,0,0,1-.68-1l16.87-82.36a.89.89,0,0,1,1-.68.87.87,0,0,1,.68,1l-16.87,82.36A.88.88,0,0,1,187.48,364.93Z" style="fill: rgb(199, 199, 199); transform-origin: 195.904px 322.905px;" id="ela5w0eo5i2w" class="animable"></path><path d="M170.14,366H170a.88.88,0,0,1-.72-1l13.66-83.4a.87.87,0,0,1,1-.71.86.86,0,0,1,.71,1L171,365.24A.88.88,0,0,1,170.14,366Z" style="fill: rgb(199, 199, 199); transform-origin: 176.967px 323.439px;" id="elrtcq0wswzd" class="animable"></path><path d="M137.44,367.69h-.07a.86.86,0,0,1-.8-.93l6.37-85.13a.87.87,0,0,1,1.74.13l-6.37,85.13A.88.88,0,0,1,137.44,367.69Z" style="fill: rgb(199, 199, 199); transform-origin: 140.625px 324.258px;" id="elhaesseyf22l" class="animable"></path><path d="M154.59,366.58h-.1a.88.88,0,0,1-.77-1l9.34-84a.87.87,0,0,1,1.73.19l-9.34,84A.87.87,0,0,1,154.59,366.58Z" style="fill: rgb(199, 199, 199); transform-origin: 159.253px 323.694px;" id="elygbj2hw241r" class="animable"></path><circle cx="83.71" cy="450.79" r="9.77" style="fill: rgb(38, 50, 56); transform-origin: 83.71px 450.79px;" id="elbc14el9ut3n" class="animable"></circle><path d="M88.15,450.79a4.44,4.44,0,1,1-4.44-4.44A4.44,4.44,0,0,1,88.15,450.79Z" style="fill: rgb(235, 235, 235); transform-origin: 83.71px 450.79px;" id="el1n299pkoeyu" class="animable"></path><circle cx="171.14" cy="450.79" r="9.77" style="fill: rgb(38, 50, 56); transform-origin: 171.14px 450.79px;" id="eltjb1kmhm5a" class="animable"></circle><path d="M175.58,450.79a4.44,4.44,0,1,1-4.44-4.44A4.44,4.44,0,0,1,175.58,450.79Z" style="fill: rgb(235, 235, 235); transform-origin: 171.14px 450.79px;" id="elknzvdnx7h5o" class="animable"></path><path d="M59.89,243.53a3,3,0,0,1-1.06-.19l-13.76-5.22a3,3,0,1,1,2.13-5.61L61,237.73a3,3,0,0,1-1.07,5.8Z" style="fill: rgb(0, 255, 136); transform-origin: 53.0288px 237.922px;" id="el30eh4d73lmu" class="animable"></path></g><g id="freepik--Floor--inject-15" class="animable" style="transform-origin: 250px 460.56px;"><path d="M48.58,460.56c129-.61,273.8-.62,402.84,0-129,.62-273.8.61-402.84,0Z" style="fill: rgb(38, 50, 56); transform-origin: 250px 460.56px;" id="elkkxg95j5za" class="animable"></path></g><g id="freepik--Device--inject-15" class="animable" style="transform-origin: 250px 267.693px;"><path d="M334.52,77.71H165.46a17.26,17.26,0,0,0-17.1,17.42v348a17.27,17.27,0,0,0,17.1,17.42H334.52a17.29,17.29,0,0,0,17.12-17.42v-348A17.28,17.28,0,0,0,334.52,77.71Zm6.42,354.67c0,9.16-6.86,16.57-15.32,16.57H174.38c-8.48,0-15.34-7.41-15.34-16.57V108.32c0-18.66,6.86-19.57,15.34-19.57h30.3c1.76,0,3.2,2,3.2,4.48V94.3c0,5.81,3.18,5.83,7.08,5.83H285c3.94,0,7.1,0,7.1-5.83V93.23c0-2.48,1.42-4.48,3.21-4.48h30.29c8.46,0,15.32,2.48,15.32,19.57Z" style="fill: rgb(38, 50, 56); transform-origin: 250px 269.13px;" id="el52bwg14hrkg" class="animable"></path><path d="M341,108.61V432.67c0,9.16-6.86,16.57-15.32,16.57H174.39c-8.48,0-15.34-7.41-15.34-16.57V108.61C159.05,90,165.91,89,174.39,89h30.3c1.76,0,3.2,2,3.2,4.48v1.07c0,5.81,3.18,5.83,7.08,5.83H285c3.94,0,7.1,0,7.1-5.83V93.52c0-2.48,1.42-4.48,3.21-4.48h30.29C334.09,89,341,91.52,341,108.61Z" style="fill: rgb(255, 255, 255); transform-origin: 250.025px 269.12px;" id="elf17q2vc7vvq" class="animable"></path><path d="M259.55,92.87H240.44a1.18,1.18,0,0,1-1.18-1.18h0a1.18,1.18,0,0,1,1.18-1.18h19.11a1.18,1.18,0,0,1,1.18,1.18h0A1.18,1.18,0,0,1,259.55,92.87Z" style="fill: rgb(255, 255, 255); transform-origin: 249.995px 91.69px;" id="elh3a8s5n91ka" class="animable"></path><g id="freepik--u5Zjqx--inject-15" class="animable" style="transform-origin: 196.175px 96.9201px;"><path d="M199.45,96l-.29.29-.17.17a4,4,0,0,0-5.64,0,1.29,1.29,0,0,1-.16-.17c-.1-.09-.19-.19-.29-.29h0l0,0c.13-.1.25-.22.37-.32a4.06,4.06,0,0,1,.86-.55,4.18,4.18,0,0,1,1.13-.38l.57-.07h.5l.38,0a4,4,0,0,1,1,.24,4.58,4.58,0,0,1,.71.33,5.35,5.35,0,0,1,.67.47l.31.28Z" style="fill: rgb(166, 166, 166); transform-origin: 196.175px 95.57px;" id="elolpf7k56p1p" class="animable"></path><path d="M194.27,97.41c-.15-.16-.3-.31-.46-.46a3.32,3.32,0,0,1,4.71,0l-.46.46a2.68,2.68,0,0,0-3.79,0Z" style="fill: rgb(166, 166, 166); transform-origin: 196.165px 96.6901px;" id="el8l1mbmn83ce" class="animable"></path><path d="M197.6,97.87l-.46.46a1.38,1.38,0,0,0-1.94,0c-.16-.15-.31-.31-.46-.46A2,2,0,0,1,197.6,97.87Z" style="fill: rgb(166, 166, 166); transform-origin: 196.17px 97.7991px;" id="elvl4x2p9ak8o" class="animable"></path><path d="M196.58,98.75a.41.41,0,0,1-.41.41.41.41,0,0,1-.42-.41.42.42,0,0,1,.42-.42A.41.41,0,0,1,196.58,98.75Z" style="fill: rgb(166, 166, 166); transform-origin: 196.165px 98.7451px;" id="eln2m713tcj" class="animable"></path></g><path d="M170.9,96.91a1.21,1.21,0,1,1,1.21,1.21A1.21,1.21,0,0,1,170.9,96.91Z" style="fill: rgb(166, 166, 166); transform-origin: 172.11px 96.91px;" id="elwu64chb9099" class="animable"></path><path d="M174.7,96.91a1.21,1.21,0,1,1,1.21,1.21A1.21,1.21,0,0,1,174.7,96.91Z" style="fill: rgb(166, 166, 166); transform-origin: 175.91px 96.91px;" id="el57zo9ugufxp" class="animable"></path><path d="M178.5,96.91a1.21,1.21,0,1,1,1.2,1.21A1.2,1.2,0,0,1,178.5,96.91Z" style="fill: rgb(166, 166, 166); transform-origin: 179.71px 96.91px;" id="elrp6otkgqs9g" class="animable"></path><path d="M182.3,96.91a1.21,1.21,0,1,1,1.2,1.21A1.2,1.2,0,0,1,182.3,96.91Z" style="fill: rgb(166, 166, 166); transform-origin: 183.51px 96.91px;" id="elxdo6bs26h29" class="animable"></path><path d="M186.09,96.91a1.21,1.21,0,1,1,1.21,1.21A1.21,1.21,0,0,1,186.09,96.91Z" style="fill: rgb(166, 166, 166); transform-origin: 187.3px 96.91px;" id="elquiyimugu1" class="animable"></path><path d="M327.3,99.55h-9.82V95h9.82Zm-9.32-.5h8.82V95.5H318Z" style="fill: rgb(166, 166, 166); transform-origin: 322.39px 97.275px;" id="el2j1pqlcx9kp" class="animable"></path><rect x="318.3" y="95.77" width="6.33" height="3" style="fill: rgb(166, 166, 166); transform-origin: 321.465px 97.27px;" id="elnosxru9t9rm" class="animable"></rect><rect x="327.3" y="96.06" width="0.87" height="2.43" style="fill: rgb(166, 166, 166); transform-origin: 327.735px 97.275px;" id="el7x3u8zyi5ab" class="animable"></rect><rect x="239.56" y="75.12" width="20.89" height="49.15" style="fill: rgb(0, 255, 136); transform-origin: 250.005px 99.695px;" id="elhp8yvcozbls" class="animable"></rect><path d="M260.44,124.26s-2,10-10.44,10-10.44-10-10.44-10Z" style="fill: rgb(0, 255, 136); transform-origin: 250px 129.26px;" id="elzmwrlzfrkak" class="animable"></path><g id="el08w73oekqfxt"><path d="M260.44,124.26s-2,10-10.44,10-10.44-10-10.44-10Z" style="opacity: 0.1; transform-origin: 250px 129.26px;" class="animable"></path></g><polygon points="239.55 124.27 218.66 124.27 220.79 75.12 239.55 75.12 239.55 124.27" style="fill: rgb(255, 255, 255); transform-origin: 229.105px 99.695px;" id="el6x82uxalota" class="animable"></polygon><path d="M239.55,124.27l-20.89.13h-.14s2-49.22,2-49.29v-.24h.23l18.76,0h.21c.08.19-.13,24.63-.08,24.83l-.13,24.52Zm0,0-.13-24.63-.07-24.52.2.2-18.76.05.25-.24c-.07,0-2.06,49.72-2.38,49l20.89.13Z" style="fill: rgb(38, 50, 56); transform-origin: 229.129px 99.635px;" id="ele4drzem5zf6" class="animable"></path><path d="M239.56,124.26s-2,10-10.46,10-10.44-10-10.44-10Z" style="fill: rgb(235, 235, 235); transform-origin: 229.11px 129.26px;" id="elkbcwsv10x4s" class="animable"></path><polygon points="218.66 124.27 197.77 124.27 202.03 75.12 220.79 75.12 218.66 124.27" style="fill: rgb(0, 255, 136); transform-origin: 209.28px 99.695px;" id="el6758jori7a" class="animable"></polygon><path d="M218.66,124.26s-2,10-10.45,10-10.44-10-10.44-10Z" style="fill: rgb(0, 255, 136); transform-origin: 208.215px 129.26px;" id="elh6685m8f0mp" class="animable"></path><g id="elsqdsphjbu4f"><path d="M218.66,124.26s-2,10-10.45,10-10.44-10-10.44-10Z" style="opacity: 0.1; transform-origin: 208.215px 129.26px;" class="animable"></path></g><polygon points="197.76 124.27 176.87 124.27 183.27 75.12 202.03 75.12 197.76 124.27" style="fill: rgb(255, 255, 255); transform-origin: 189.45px 99.695px;" id="el4i6c6agpdm8" class="animable"></polygon><path d="M197.76,124.27l-20.89.13h-.15S183,75.17,183,75.09l0-.22h.22l18.76,0h.22l0,.22L200,99.76l-2.26,24.51Zm0,0,2-24.64,2.06-24.53.2.22-18.76.05.24-.22c-.07,0-6.35,49.74-6.64,49l20.89.13Z" style="fill: rgb(38, 50, 56); transform-origin: 189.46px 99.635px;" id="elfhygvtw2bb" class="animable"></path><path d="M197.76,124.26s-2,10-10.45,10-10.44-10-10.44-10Z" style="fill: rgb(235, 235, 235); transform-origin: 187.315px 129.26px;" id="ela6ohzq0x0y" class="animable"></path><polygon points="176.87 124.27 155.98 124.27 164.51 75.12 183.26 75.12 176.87 124.27" style="fill: rgb(0, 255, 136); transform-origin: 169.62px 99.695px;" id="elp9w04lgllj" class="animable"></polygon><path d="M176.87,124.26s-2,10-10.44,10-10.46-10-10.46-10Z" style="fill: rgb(0, 255, 136); transform-origin: 166.42px 129.26px;" id="eleiyd51biys" class="animable"></path><g id="elwcdxuvkzwk"><path d="M176.87,124.26s-2,10-10.44,10-10.46-10-10.46-10Z" style="opacity: 0.1; transform-origin: 166.42px 129.26px;" class="animable"></path></g><path d="M156,124.27H135.08l9.33-43c.77-3.55,4.55-6.14,9-6.14H164.5Z" style="fill: rgb(255, 255, 255); transform-origin: 149.79px 99.7px;" id="el1u2ivwgjqbq" class="animable"></path><path d="M156,124.27l-20.89.13h-.16l0-.16c1.31-6.11,7.6-35.42,8.76-40.85a14.91,14.91,0,0,1,1.19-4.07c2.21-4,7.11-4.71,11.25-4.43l8.35,0h.25l-.05.23-4.34,24.62L156,124.27Zm0,0,4.14-24.65,4.19-24.54.2.24-8.35,0c-4-.24-8.67.4-10.83,4.22a14.32,14.32,0,0,0-1.15,3.93l-1.79,8.16-7.17,32.65-.13-.16,20.89.13Z" style="fill: rgb(38, 50, 56); transform-origin: 149.85px 99.6179px;" id="ellqv1f59n04d" class="animable"></path><path d="M156,124.26s-2,10-10.44,10-10.44-10-10.44-10Z" style="fill: rgb(235, 235, 235); transform-origin: 145.56px 129.26px;" id="elm5uv9bi1m0r" class="animable"></path><polygon points="260.45 124.27 281.34 124.27 279.21 75.12 260.45 75.12 260.45 124.27" style="fill: rgb(255, 255, 255); transform-origin: 270.895px 99.695px;" id="elo78m1ra6pfp" class="animable"></polygon><path d="M260.45,124.27l20.89-.13-.13.13L279,75.13l.25.24-18.76-.05.2-.2-.07,24.52-.13,24.63Zm0,0-.13-24.52-.07-24.63v-.2h.21l18.76,0h.23v.24c0,.18,2,49.13,2,49.29h-.14l-20.89-.13Z" style="fill: rgb(38, 50, 56); transform-origin: 270.85px 99.685px;" id="el0e7dlql9sd9u" class="animable"></path><path d="M281.34,124.26s-2,10-10.44,10-10.46-10-10.46-10Z" style="fill: rgb(235, 235, 235); transform-origin: 270.89px 129.26px;" id="el1cl2y6rxhsu" class="animable"></path><polygon points="281.34 124.27 302.23 124.27 297.97 75.12 279.21 75.12 281.34 124.27" style="fill: rgb(0, 255, 136); transform-origin: 290.72px 99.695px;" id="elymnuoh0g08e" class="animable"></polygon><path d="M302.23,124.26s-2,10-10.44,10-10.45-10-10.45-10Z" style="fill: rgb(0, 255, 136); transform-origin: 291.785px 129.26px;" id="elh612angd82v" class="animable"></path><g id="eli10v3u0xvzg"><path d="M302.23,124.26s-2,10-10.44,10-10.45-10-10.45-10Z" style="opacity: 0.1; transform-origin: 291.785px 129.26px;" class="animable"></path></g><polygon points="302.24 124.27 323.13 124.27 316.73 75.12 297.97 75.12 302.24 124.27" style="fill: rgb(255, 255, 255); transform-origin: 310.55px 99.695px;" id="el583a41mz2ub" class="animable"></polygon><path d="M302.24,124.27l20.89-.13c-.29.9-6.54-49.19-6.64-49l.24.22L298,75.32l.2-.22c1.05,12.25,3.08,36.91,4.07,49.17Zm0,0L300,99.76l-2.21-24.62,0-.22H298l18.76,0H317c.07.36,6.27,49.15,6.33,49.53h-.15l-20.89-.13Z" style="fill: rgb(38, 50, 56); transform-origin: 310.56px 99.685px;" id="eltekh13n39a" class="animable"></path><path d="M323.13,124.26s-2,10-10.44,10-10.45-10-10.45-10Z" style="fill: rgb(235, 235, 235); transform-origin: 312.685px 129.26px;" id="elayom2cw70j" class="animable"></path><polygon points="323.13 124.27 344.02 124.27 335.49 75.12 316.74 75.12 323.13 124.27" style="fill: rgb(0, 255, 136); transform-origin: 330.38px 99.695px;" id="elbqm5b6tvdm6" class="animable"></polygon><path d="M344,124.26s-2,10-10.46,10-10.44-10-10.44-10Z" style="fill: rgb(0, 255, 136); transform-origin: 333.55px 129.26px;" id="el1gqhwh3uk5l" class="animable"></path><g id="elp6yfi8ypmz"><path d="M344,124.26s-2,10-10.46,10-10.44-10-10.44-10Z" style="opacity: 0.1; transform-origin: 333.55px 129.26px;" class="animable"></path></g><path d="M344,124.27h20.89l-9.33-43c-.77-3.55-4.55-6.14-9-6.14H335.5Z" style="fill: rgb(255, 255, 255); transform-origin: 350.195px 99.7px;" id="elahl247uz1ro" class="animable"></path><path d="M344,124.27l20.89-.13-.13.16-7.17-32.65-1.79-8.16a14.32,14.32,0,0,0-1.15-3.93c-2.16-3.82-6.81-4.46-10.83-4.22l-8.35,0,.2-.24C337.81,87.33,342,112,344,124.27Zm0,0-4.39-24.5L335.3,75.15l-.05-.23h.25l8.35,0c4.87-.39,10.8,1,12,6.45,1.5,7,7.6,35.42,9.2,42.9l0,.16h-.16L344,124.27Z" style="fill: rgb(38, 50, 56); transform-origin: 350.15px 99.6443px;" id="elhe46wwc8of" class="animable"></path><path d="M364.91,124.26s-2,10-10.44,10-10.44-10-10.44-10Z" style="fill: rgb(235, 235, 235); transform-origin: 354.47px 129.26px;" id="elrwinq53qcw" class="animable"></path><rect x="201.4" y="220.53" width="97.21" height="97.21" style="fill: rgb(0, 255, 136); transform-origin: 250.005px 269.135px;" id="ely7fla6111ls" class="animable"></rect><polygon points="281.94 267.06 218.06 267.06 218.06 258 281.94 258 281.94 258 281.94 267.06" style="fill: rgb(255, 255, 255); transform-origin: 250px 262.53px;" id="el91ln157dqtv" class="animable"></polygon><polygon points="278.38 265.14 276.27 298.75 223.74 298.75 221.62 265.14 278.38 265.14" style="fill: rgb(255, 255, 255); transform-origin: 250px 281.945px;" id="elyw782zm3ew" class="animable"></polygon><path d="M256.79,261.51a6.79,6.79,0,1,1-6.79-6.79A6.8,6.8,0,0,1,256.79,261.51Z" style="fill: rgb(255, 255, 255); transform-origin: 250px 261.51px;" id="el5jmrbyqsy1k" class="animable"></path><path d="M241.06,272.41v19.34a1.72,1.72,0,0,1-1.72,1.74h-.28a1.43,1.43,0,0,1-1.42-1.44V272.41a1.43,1.43,0,0,1,1.42-1.42h.56A1.42,1.42,0,0,1,241.06,272.41Z" style="fill: rgb(0, 255, 136); transform-origin: 239.35px 282.24px;" id="elm8vwxgxqydc" class="animable"></path><path d="M251.7,272.41v19.34a1.72,1.72,0,0,1-1.72,1.74h-.28a1.43,1.43,0,0,1-1.42-1.44V272.41A1.43,1.43,0,0,1,249.7,271h.56A1.42,1.42,0,0,1,251.7,272.41Z" style="fill: rgb(0, 255, 136); transform-origin: 249.99px 282.245px;" id="el3s1n6to5gq7" class="animable"></path><path d="M262.34,272.41v19.34a1.72,1.72,0,0,1-1.72,1.74h-.28a1.43,1.43,0,0,1-1.42-1.44V272.41a1.43,1.43,0,0,1,1.42-1.42h.56A1.42,1.42,0,0,1,262.34,272.41Z" style="fill: rgb(0, 255, 136); transform-origin: 260.63px 282.24px;" id="el7pccc7gz7pm" class="animable"></path><polygon points="268.63 260.96 265.63 260.96 265.63 243 234.37 243 234.37 260.96 231.37 260.96 231.37 240 268.63 240 268.63 260.96" style="fill: rgb(255, 255, 255); transform-origin: 250px 250.48px;" id="elkzskicooo6o" class="animable"></polygon><g id="ellvbd32p6bm"><circle cx="298.6" cy="220.53" r="15.89" style="fill: rgb(69, 90, 100); transform-origin: 298.6px 220.53px; transform: rotate(-47.71deg);" class="animable"></circle></g><path d="M301.9,218.88a5.44,5.44,0,0,1,1.64,3.91,5.56,5.56,0,0,1-9.5,3.94,1.27,1.27,0,1,1,1.79-1.79,3,3,0,0,0,2.13.88,3,3,0,0,0,2.15-.88,3,3,0,0,0,.9-2.15,2.92,2.92,0,0,0-.9-2.12,3,3,0,0,0-2.13-.9,1.12,1.12,0,0,1-.92-.4s0,0,0,0a1.29,1.29,0,0,1,0-1.8l2.28-2.32h-3.63a1.27,1.27,0,0,1,0-2.53h6.61a1.26,1.26,0,0,1,1.28,1.25,1.34,1.34,0,0,1-.16.6,1.51,1.51,0,0,1-.22.32l-2.83,2.91A4.9,4.9,0,0,1,301.9,218.88Z" style="fill: rgb(255, 255, 255); transform-origin: 298.596px 220.543px;" id="ela6rys79lzrs" class="animable"></path></g><g id="freepik--Character--inject-15" class="animable" style="transform-origin: 368.137px 276.655px;"><path d="M369.8,162.79c7.88,5.67,33.07,28.48,34.66,32.28,1.91,4.52-7.86,20.59-11.9,20.24-10.44-.91-28.72-33.79-34.58-48.84C355.11,159.11,356.62,153.3,369.8,162.79Z" style="fill: rgb(211, 118, 106); transform-origin: 380.731px 186.579px;" id="el92o6tjsbkyw" class="animable"></path><path d="M391.15,160.76c2.26-2.48,20.15,10.84,19.79,15.76-1.31,18.1-6.86,33.47-10.16,36.65a9.06,9.06,0,0,1-14.36-2.89C382.46,202,382.39,170.35,391.15,160.76Z" style="fill: rgb(211, 118, 106); transform-origin: 397.398px 188.006px;" id="elftvehqdexo" class="animable"></path><path d="M384.49,200.05c-2-10,.59-24.14.58-24.16,0-.2.26-.27.27-.16.07,2-1.29,16.82-.58,24.24C384.76,200,384.5,200.12,384.49,200.05Z" style="fill: rgb(38, 50, 56); transform-origin: 384.537px 187.875px;" id="ellzeiju946fn" class="animable"></path><path d="M414.75,163.27c-.3,5.25-5.11,15.73-7.25,17.82s-20.23-5.51-21-8.47,1.6-20.54,5.18-24.52S415.06,157.83,414.75,163.27Z" style="fill: rgb(211, 118, 106); transform-origin: 400.554px 164.417px;" id="elm5gaci6cvco" class="animable"></path><path d="M386.35,169.56a43.72,43.72,0,0,0-5.73-11.3c-3.07-4-8.08-9.66-6-11.4,4.32-3.55,16.81,10.51,16.81,10.51s4.52,7.08.55,11A5.53,5.53,0,0,1,386.35,169.56Z" style="fill: rgb(211, 118, 106); transform-origin: 383.871px 158.08px;" id="eld1j805awec" class="animable"></path><polygon points="391.75 158.95 396.43 156.06 388.07 142.51 382.15 146.17 391.75 158.95" style="fill: rgb(0, 255, 136); transform-origin: 389.29px 150.73px;" id="el1cjrx7tmpra" class="animable"></polygon><polygon points="382.16 146.17 385.81 151.04 391.76 158.95 396.43 156.06 388.08 142.51 382.16 146.17" style="fill: rgb(0, 255, 136); transform-origin: 389.295px 150.73px;" id="elxm774n8y6l" class="animable"></polygon><g id="elkxgd1osn7qm"><polygon points="382.16 146.17 385.81 151.04 391.26 147.68 388.08 142.51 382.16 146.17" style="opacity: 0.1; transform-origin: 386.71px 146.775px;" class="animable"></polygon></g><g id="eln8d6dxhm6v"><rect x="380.47" y="140.15" width="8.65" height="6.57" style="fill: rgb(0, 255, 136); transform-origin: 384.795px 143.435px; transform: rotate(-211.945deg);" class="animable"></rect></g><polygon points="373.19 143.91 379.27 140.95 373.68 131.9 368.31 136 373.19 143.91" style="fill: rgb(0, 255, 136); transform-origin: 373.79px 137.905px;" id="elrbne7w7t7n" class="animable"></polygon><polygon points="375.52 128.29 383.76 141.65 394.07 136.88 421.46 131.32 401.66 99.23 384.41 121.22 375.52 128.29" style="fill: rgb(0, 255, 136); transform-origin: 398.49px 120.44px;" id="el0x8a8zw2bg6" class="animable"></polygon><path d="M406.9,118.15c5.49,8.91,12.27,14.7,15.13,12.93s.73-10.41-4.77-19.32S405,97.07,402.13,98.83,401.41,109.25,406.9,118.15Z" style="fill: rgb(0, 255, 136); transform-origin: 412.079px 114.956px;" id="elbowykzjcism" class="animable"></path><g id="eluhw9jbfp4ce"><path d="M407.94,117.13c4.87,7.91,10.72,13.14,13.07,11.7s.29-9-4.59-16.93-10.73-13.14-13.07-11.7S403.06,109.23,407.94,117.13Z" style="opacity: 0.2; transform-origin: 412.182px 114.515px;" class="animable"></path></g><path d="M408.63,116.71c.65,1.05,1.31,2.05,2,3A3.76,3.76,0,0,0,414.3,114l-.93-1.51a3.76,3.76,0,0,0-6.74.7C407.23,114.34,407.9,115.52,408.63,116.71Z" style="fill: rgb(0, 255, 136); transform-origin: 410.747px 115.221px;" id="ele724teb7zfe" class="animable"></path><polygon points="379.04 145.59 390.79 139.87 379.99 122.36 369.6 130.29 379.04 145.59" style="fill: rgb(0, 255, 136); transform-origin: 380.195px 133.975px;" id="eln87hq8dtz3r" class="animable"></polygon><g id="eltisdiqdmqp"><polygon points="379.04 145.59 390.79 139.87 379.99 122.36 369.6 130.29 379.04 145.59" style="opacity: 0.2; transform-origin: 380.195px 133.975px;" class="animable"></polygon></g><g id="elua3lcvit8n"><path d="M401.52,102.36a11.84,11.84,0,0,0,.26,4.23,27.38,27.38,0,0,0,1.26,4.07c.25.67.55,1.31.83,2s.62,1.28.95,1.91.66,1.26,1,1.87.71,1.23,1.08,1.83a47.7,47.7,0,0,0,5.09,6.83,23.78,23.78,0,0,0,3.14,2.88,10,10,0,0,0,3.79,1.89,10.45,10.45,0,0,1-3.67-2,24.68,24.68,0,0,1-3-2.94,49.7,49.7,0,0,1-5-6.83,51.92,51.92,0,0,1-3.94-7.49,26.5,26.5,0,0,1-1.35-4A12.06,12.06,0,0,1,401.52,102.36Z" style="opacity: 0.2; transform-origin: 410.178px 116.115px;" class="animable"></path></g><path d="M412.91,94.36c-.49.85-.94,1.72-1.38,2.6s-.86,1.76-1.27,2.65-.81,1.79-1.18,2.69l-.56,1.37c-.17.46-.36.91-.52,1.38.25-.43.48-.86.72-1.29l.67-1.31c.44-.88.86-1.76,1.27-2.65s.81-1.79,1.18-2.7S412.59,95.29,412.91,94.36Z" style="fill: rgb(38, 50, 56); transform-origin: 410.455px 99.705px;" id="el1qpvvx5ehf9" class="animable"></path><path d="M418.43,123c1.1-.13,2.19-.32,3.28-.51s2.17-.41,3.25-.63,2.17-.46,3.24-.73l1.61-.4c.53-.15,1.07-.28,1.6-.45l-1.65.24-1.63.28c-1.09.18-2.17.4-3.26.63s-2.16.46-3.23.73S419.49,122.73,418.43,123Z" style="fill: rgb(38, 50, 56); transform-origin: 424.92px 121.64px;" id="eld677nnucf8v" class="animable"></path><path d="M435.93,111.94c-1.56.48-3.1,1-4.63,1.54s-3.06,1.09-4.59,1.65-3,1.14-4.55,1.75l-2.26.91c-.75.31-1.51.62-2.25.95.78-.24,1.55-.5,2.32-.75l2.31-.79c1.54-.53,3.06-1.09,4.59-1.65s3-1.15,4.55-1.75S434.44,112.59,435.93,111.94Z" style="fill: rgb(38, 50, 56); transform-origin: 426.79px 115.34px;" id="el5qlpox5wwzh" class="animable"></path><path d="M421.47,91.31c-1,1.34-1.88,2.71-2.8,4.08s-1.81,2.76-2.69,4.15-1.76,2.78-2.61,4.2l-1.28,2.12c-.41.71-.83,1.42-1.23,2.14.48-.67.94-1.35,1.42-2l1.38-2c.91-1.37,1.8-2.76,2.69-4.15s1.76-2.78,2.61-4.2S420.66,92.75,421.47,91.31Z" style="fill: rgb(38, 50, 56); transform-origin: 416.165px 99.655px;" id="ellam5cydz5sl" class="animable"></path><path d="M414.73,113.15c1.66-.93,3.29-1.91,4.92-2.9s3.23-2,4.85-3,3.21-2,4.8-3.1l2.39-1.57c.78-.54,1.57-1.07,2.35-1.62-.83.47-1.65,1-2.47,1.43l-2.45,1.48c-1.63,1-3.23,2-4.85,3s-3.21,2-4.8,3.09S416.29,112.06,414.73,113.15Z" style="fill: rgb(38, 50, 56); transform-origin: 424.385px 107.055px;" id="eliogi74rd63d" class="animable"></path><path d="M387.37,155.33c1.3,2.47,3.46-.48,3.46-.48s-2.09,5,.24,7,4.72-1.71,4.9-2c-.11.26-1.9,4.89.64,6.68s4.51-2.23,4.63-2.5c0,.29-.27,4,2,4.94,3.85,1.57,4.74-7.95,7.43-10,0,0,4,4.15,4.11,4.25s1-9-1.92-12.51a2.9,2.9,0,0,0-3.56-.74s.65-2.87-1.31-4.35c-1-.75-3.1.19-3.1.19a3.63,3.63,0,0,0-1.4-3.52c-1.45-1-3.33.13-3.33.13s-.62-2.43-2.43-2.93C394.07,138.52,384.59,150.06,387.37,155.33Z" style="fill: rgb(211, 118, 106); transform-origin: 400.93px 154.288px;" id="elzphk7xg9y1m" class="animable"></path><path d="M399.81,142.6s0-.09-.05-.06A25.88,25.88,0,0,0,390.69,155c-.05.16.19.31.28.14A52.85,52.85,0,0,1,399.81,142.6Z" style="fill: rgb(38, 50, 56); transform-origin: 395.247px 148.874px;" id="elzhg8zolj0g8" class="animable"></path><path d="M404.88,145.79s0-.11-.08-.07a24.24,24.24,0,0,0-9,14.21c0,.2.13.41.19.19C397,156.31,401.51,149.24,404.88,145.79Z" style="fill: rgb(38, 50, 56); transform-origin: 400.34px 152.963px;" id="elsbw45u46vwp" class="animable"></path><path d="M401.3,164.51c1.25-5.53,4.14-10.1,7.79-14.37,0,0,0-.11-.09-.08-2.35,1.6-4.39,4.57-5.79,7a14.93,14.93,0,0,0-2.1,7.4C401.11,164.57,401.27,164.62,401.3,164.51Z" style="fill: rgb(38, 50, 56); transform-origin: 405.1px 157.313px;" id="el8n3ocpvq7cn" class="animable"></path><path d="M390.74,154.88c-.06.19.28.07.23.26-.22.82-1.15,5.82.46,6.66,1.29.68,3.09-.59,3.59-1.35l1.26-1.9-.52,2.23a9.27,9.27,0,0,0-.23,3,3.37,3.37,0,0,0,1.19,2.46,1.93,1.93,0,0,0,2.41,0,5.79,5.79,0,0,0,1.68-2.35l1.07-2.48-.19,2.68a8.85,8.85,0,0,0,.12,2.24,3.63,3.63,0,0,0,.89,1.89,1.72,1.72,0,0,0,1.76.43,3.75,3.75,0,0,0,1.56-1.44,29.7,29.7,0,0,0,2.16-4.16c.34-.72.67-1.44,1-2.14a5.59,5.59,0,0,1,1.42-1.91,6,6,0,0,0-1.22,2c-.31.73-.59,1.47-.87,2.21a25.07,25.07,0,0,1-2,4.36,4.37,4.37,0,0,1-1.82,1.79,2.44,2.44,0,0,1-2.62-.54,4.46,4.46,0,0,1-1.16-2.32,9.34,9.34,0,0,1-.17-2.48l.87.19a6.56,6.56,0,0,1-2,2.8,2.81,2.81,0,0,1-1.77.6,3.21,3.21,0,0,1-1.74-.64,4.23,4.23,0,0,1-1.51-3.11,10.3,10.3,0,0,1,.3-3.32l.74.33c-.67.94-2.53,2.57-4.66,1.78C388.43,161.22,390.32,155.84,390.74,154.88Z" style="fill: rgb(38, 50, 56); transform-origin: 400.135px 162.206px;" id="elvcg7irkcb79" class="animable"></path><path d="M390.83,154.85a5.83,5.83,0,0,1-1.42,1,1.34,1.34,0,0,1-1.31-.09,2.65,2.65,0,0,1-.77-1.28c-.17-.54-.32-1.11-.45-1.7a4.35,4.35,0,0,0-.15,1.83,2.62,2.62,0,0,0,.91,1.78,1.78,1.78,0,0,0,2.05,0A3,3,0,0,0,390.83,154.85Z" style="fill: rgb(38, 50, 56); transform-origin: 388.761px 154.747px;" id="el3cp1tcq606s" class="animable"></path><path d="M345.29,448.44c-2-1.23-42.26-50-42.61-52.87-.05-.39,6.08-5.91,13.86-12.84.4-.36,29.54-28.56,29.54-28.56l25,30.19-27.34,27.9s7.06,25.57,7.12,28.73S347.27,449.68,345.29,448.44Z" style="fill: rgb(211, 118, 106); transform-origin: 336.88px 401.394px;" id="eltqe11fbykci" class="animable"></path><path d="M346.65,422.37c-.07-.16-.09-.25-.06-.29A2.45,2.45,0,0,1,346.65,422.37Z" style="fill: rgb(0, 255, 136); transform-origin: 346.613px 422.225px;" id="elw9l2cjigpw" class="animable"></path><path d="M350.87,441c.05,3.14-3.61,8.69-5.58,7.45s-42.26-50-42.61-52.87c-.06-.39,6.07-5.91,13.86-12.84l6.26-6,25.77,30.65-4.82,4.92S350.81,437.83,350.87,441Z" style="fill: rgb(235, 235, 235); transform-origin: 326.775px 412.684px;" id="el7t36vjy2w2j" class="animable"></path><path d="M346.85,447.93c-2-1.25-42.59-50.67-42.94-53.54-.15-1.08,6.71-7.42,15.21-14.83l.27-.23,26.54,31.6-.55.43s7.07,25.87,7.13,29.06S348.84,449.19,346.85,447.93Z" style="fill: rgb(0, 255, 136); transform-origin: 328.209px 413.721px;" id="ely17gcg00mvl" class="animable"></path><path d="M348.3,445.8c-6.63-8.5-34.21-42.16-41.41-50.06-.06-.06-.11,0-.05.05,6.39,8.57,34.23,42,41.33,50.12C348.32,446.08,348.44,446,348.3,445.8Z" style="fill: rgb(255, 255, 255); transform-origin: 327.587px 420.859px;" id="el1kqa32m94t1i" class="animable"></path><path d="M347.49,414.12c-2.08-3.79-5.88-7.38-10.27-8-.17,0-.2.22-.08.3a60,60,0,0,1,9.92,8A.27.27,0,0,0,347.49,414.12Z" style="fill: rgb(255, 255, 255); transform-origin: 342.288px 410.303px;" id="elt5x3qmlywg" class="animable"></path><path d="M348,417.65c-2.08-3.78-5.87-7.37-10.27-8-.17,0-.2.22-.08.3a59.54,59.54,0,0,1,9.93,8A.27.27,0,0,0,348,417.65Z" style="fill: rgb(255, 255, 255); transform-origin: 342.796px 413.828px;" id="elvbk77j1967" class="animable"></path><path d="M348.52,421.19c-2.08-3.78-5.88-7.38-10.27-8-.17,0-.2.22-.08.29a60.11,60.11,0,0,1,9.93,8A.27.27,0,0,0,348.52,421.19Z" style="fill: rgb(255, 255, 255); transform-origin: 343.314px 417.361px;" id="elguxgn96lhu" class="animable"></path><path d="M349.24,447.23c.38,1.17-2.75,3.42-3.51,3S301,395.67,300.41,394.58s3-3.44,4.06-2.52S349.24,447.23,349.24,447.23Z" style="fill: rgb(38, 50, 56); transform-origin: 324.808px 421.066px;" id="el77q6657dkk7" class="animable"></path><path d="M320.56,392c-1.15-5-9-3.27-7.86,1.79S321.71,397.1,320.56,392Z" style="fill: rgb(255, 255, 255); transform-origin: 316.631px 392.914px;" id="elvzmgaimxss8" class="animable"></path><path d="M366.11,323.7c-2.24,11-42.71,49.05-42.71,49.05l31.89,36.82s59.69-58.86,56.3-83.22c-2.95-21.2-34.68-106.42-34.68-106.42H340.3S368.3,312.86,366.11,323.7Z" style="fill: rgb(55, 71, 79); transform-origin: 367.565px 314.75px;" id="el4xhatgnggq" class="animable"></path><path d="M366.11,323.7c-2.24,11-42.71,49.05-42.71,49.05l31.89,36.82s59.69-58.86,56.3-83.22c-2.95-21.2-34.68-106.42-34.68-106.42H340.3S368.3,312.86,366.11,323.7Z" style="fill: rgb(55, 71, 79); transform-origin: 367.565px 314.75px;" id="el9a08bsybcip" class="animable"></path><path d="M358.92,400.81c-4.24-5.27-2.95-3.82-7.24-9.05-2.11-2.56-15.94-19.35-18.32-21.4-.05,0-.14,0-.11.09,1.6,2.7,15.72,19.26,17.88,21.78,4.39,5.14,3.19,3.62,7.64,8.71C358.85,401,359,400.91,358.92,400.81Z" style="fill: rgb(38, 50, 56); transform-origin: 346.093px 385.66px;" id="elaf70nxy25f" class="animable"></path><path d="M370.65,318.33c-.52-2.75-1.12-5.5-1.7-8.24q-1.79-8.4-3.78-16.75-3.94-16.56-8.6-32.94c-3.12-10.95-6.42-21.89-10.22-32.63-.46-1.33-1-2.65-1.43-4,0-.1-.2-.06-.16,0,3.29,10.76,6.68,21.49,9.76,32.31s5.92,21.61,8.6,32.49c1.34,5.47,2.59,11,3.82,16.44q.9,4.05,1.76,8.11a57.83,57.83,0,0,1,1.53,8.35,12.67,12.67,0,0,1-2.15,7.52c-1.37,2.25-3,4.36-4.54,6.48-3.13,4.24-27.65,31.45-28.61,32.36-.08.07,0,.17.11.11,4-3.59,24-25,27.22-29.21,1.59-2.09,3.13-4.22,4.65-6.36a25.14,25.14,0,0,0,3.64-6.41A15.15,15.15,0,0,0,370.65,318.33Z" style="fill: rgb(38, 50, 56); transform-origin: 352.994px 295.834px;" id="el6ryefyuqut" class="animable"></path><path d="M370.58,219.92l-6.65,87.22c-6.34-29.85-23.62-87.22-23.62-87.22Z" style="fill: rgb(38, 50, 56); transform-origin: 355.445px 263.53px;" id="elsmwnn7ukxoa" class="animable"></path><path d="M432,459.9c-2.2.75-65.49.92-67.9-.61-.34-.2-.71-8.44-1.13-18.86,0-.53-7.76-43.21-7.76-43.21l39.21-.19,8.64,41.1s24.25,10.77,26.73,12.72S434.18,459.16,432,459.9Z" style="fill: rgb(211, 118, 106); transform-origin: 394.082px 428.744px;" id="eltn5vj9hss7" class="animable"></path><path d="M432,459.9c-2.21.75-65.49.92-67.9-.61-.34-.2-.72-8.44-1.14-18.86,0-.15-.59-3.47-1.44-8.21h40.29l1.24,5.91s24.25,10.77,26.73,12.72S434.18,459.16,432,459.9Z" style="fill: rgb(235, 235, 235); transform-origin: 397.235px 446.339px;" id="elq0wimg1em0c" class="animable"></path><path d="M412.68,442.3c-.16,0-.25-.09-.26-.14Z" style="fill: rgb(0, 255, 136); transform-origin: 412.55px 442.23px;" id="elrclg56tfegn" class="animable"></path><path d="M432.29,459.62c-2.24.74-66.2.45-68.62-1.11-.94-.58-1.44-9.9-1.72-21.18V437l41.26-.28,0,.7s24.43,11.07,26.92,13.06S434.52,458.88,432.29,459.62Z" style="fill: rgb(0, 255, 136); transform-origin: 397.614px 448.364px;" id="elncnbkkyvrw" class="animable"></path><path d="M431.57,457.13c-10.78-.31-54.29-.56-65-.05-.09,0-.09.06,0,.07,10.67.54,54.18.44,65,.16C431.8,457.3,431.8,457.14,431.57,457.13Z" style="fill: rgb(255, 255, 255); transform-origin: 399.122px 457.163px;" id="ele47t9wtk3nm" class="animable"></path><path d="M406.66,437.54c-4.24-.81-9.43-.18-12.69,2.83-.12.11,0,.29.18.25a59.55,59.55,0,0,1,12.49-2.54A.27.27,0,0,0,406.66,437.54Z" style="fill: rgb(255, 255, 255); transform-origin: 400.421px 438.921px;" id="elxxvmhstepem" class="animable"></path><path d="M409.71,439.4c-4.24-.81-9.43-.18-12.68,2.83-.13.11,0,.29.17.25a59.81,59.81,0,0,1,12.49-2.54A.27.27,0,0,0,409.71,439.4Z" style="fill: rgb(255, 255, 255); transform-origin: 403.474px 440.781px;" id="elgwcotxekqb5" class="animable"></path><path d="M412.77,441.26c-4.24-.81-9.44-.18-12.69,2.83-.13.11,0,.29.18.25a59.55,59.55,0,0,1,12.49-2.54A.27.27,0,0,0,412.77,441.26Z" style="fill: rgb(255, 255, 255); transform-origin: 406.527px 442.641px;" id="el239fbgkbi0v" class="animable"></path><path d="M433.27,457.33c1.15.44.88,4.29.05,4.59s-70.56-.32-71.74-.59-.73-4.52.65-4.74S433.27,457.33,433.27,457.33Z" style="fill: rgb(38, 50, 56); transform-origin: 397.471px 459.279px;" id="elrbnve0s8lf" class="animable"></path><path d="M372.47,444.19c-4.62-2.34-8.27,4.84-3.63,7.19S377.11,446.53,372.47,444.19Z" style="fill: rgb(255, 255, 255); transform-origin: 370.657px 447.786px;" id="el1v1ocsbnqvs" class="animable"></path><path d="M373.38,219.93a149.9,149.9,0,0,0-3.15,18.26c-.76,7.66-1.72,14.44-2.74,15.28s-6.94,4.67-8.89,5.86c0,0,18,54.68,22.69,72.9,6.75,26.42,22.88,96.51,22.88,96.51H360s-11.93-66.28-17.65-91.43C337.42,315.73,318.62,251,318.62,251c-6.84-16.82,4.69-31.11,4.69-31.11S373.38,219.9,373.38,219.93Z" style="fill: rgb(55, 71, 79); transform-origin: 360.311px 324.315px;" id="elmyjva1ifi2r" class="animable"></path><path d="M400.06,420.38c-6.53,0-4.65-.12-11.18-.08-3.19,0-24.17.15-27.15.71-.06,0-.06.13,0,.14,3,.46,24,0,27.15-.13,6.53-.17,4.65-.2,11.17-.44A.1.1,0,0,0,400.06,420.38Z" style="fill: rgb(38, 50, 56); transform-origin: 380.92px 420.821px;" id="elqtcdhemco8" class="animable"></path><path d="M370.54,251.31a82.91,82.91,0,0,0-11.88,8,.14.14,0,0,0,.16.24c4-2.52,8.15-5,12-7.72A.29.29,0,0,0,370.54,251.31Z" style="fill: rgb(38, 50, 56); transform-origin: 364.785px 255.425px;" id="el1coakcp41x3" class="animable"></path><path d="M367.25,221.57c0-.15-.3-.14-.27,0a144.93,144.93,0,0,1,1.51,14.52c.15,2.26.27,14.81-3.73,14.52-.66,0-1.09-.64-1.34-1.59a15.47,15.47,0,0,1-.08-3.85c0-2.64,0-5.27-.21-7.9a71.19,71.19,0,0,0-2.41-14.5.13.13,0,0,0-.25.05,133.36,133.36,0,0,1,1.94,20.24c0,3.26-.84,8.32,2.57,8.3s4.43-8.43,4.51-10.7A74.22,74.22,0,0,0,367.25,221.57Z" style="fill: rgb(38, 50, 56); transform-origin: 364.983px 236.411px;" id="el6pcxbji38u3" class="animable"></path><path d="M364.92,250.94a20.31,20.31,0,0,0-.47,2.68,6,6,0,0,0,0,2.15.15.15,0,0,0,.28,0,7.56,7.56,0,0,0,.58-2.17c.17-.83.36-1.66.5-2.5A.43.43,0,0,0,364.92,250.94Z" style="fill: rgb(38, 50, 56); transform-origin: 365.085px 253.217px;" id="ele43wd98l47m" class="animable"></path><path d="M356.14,405.82c-.12-1-.25-2-.39-3-.27-1.91-.59-3.81-.89-5.72-.59-3.83-1.24-7.64-1.92-11.45-1.35-7.61-2.91-15.19-4.56-22.73-.93-4.27-2-8.48-3.15-12.7-.08-.29-.49-.15-.44.14.69,3.85,1.36,7.71,2.15,11.55s1.57,7.66,2.33,11.49c1.5,7.57,2.9,15.17,4.4,22.75.43,2.14.81,4.28,1.23,6.42.21,1.07.42,2.13.65,3.2s.56,2.1.74,3.17c0,.1.16.05.15,0C356.27,407.89,356.25,406.85,356.14,405.82Z" style="fill: rgb(38, 50, 56); transform-origin: 350.613px 379.529px;" id="elfb24xgwfebj" class="animable"></path><path d="M385.83,348.61c-1.44-7.15-3.37-14.2-5.31-21.22-3.92-14.13-8.52-28.05-13.12-42l-4-12c-.67-2-3.91-12.81-4.31-13.84-.05-.1-.2-.06-.17,0,.93,3.68,2.2,9.05,3.28,12.7s2.22,7.18,3.34,10.77c2.2,7.05,4.44,14.09,6.57,21.16,4.22,14,8.42,27.93,11.84,42.13,1,4,1.92,7.94,2.79,11.94s1.63,8,2.46,12a.1.1,0,0,0,.2,0C388.71,363,387.26,355.77,385.83,348.61Z" style="fill: rgb(38, 50, 56); transform-origin: 374.158px 314.92px;" id="elujo96rx56e" class="animable"></path><path d="M359.06,386c-2.37-13.63-5.21-27.18-8.36-40.66s-6.68-27-10.56-40.34S332,278.4,327.35,265.29c-2.18-6.21-4.85-12.36-5.84-18.88a38.69,38.69,0,0,1,4-24.46.09.09,0,1,0-.16-.09c-3.89,5.81-8.22,17.85-1,37.16,2.4,6.44,4.47,13,6.6,19.51q3.28,10.07,6.29,20.19c4,13.39,7.66,26.87,11,40.44s6.25,27.23,8.84,40.95,3.63,18.42,5.84,32.25c.29,1.8.52,3.61.76,5.42,0,.1.17.1.16,0C362.07,404.07,361.42,399.59,359.06,386Z" style="fill: rgb(38, 50, 56); transform-origin: 342.151px 319.834px;" id="eluvkxpsrftrh" class="animable"></path><path d="M378.63,221.23l-2.85-18.9s5.61-6.57,2.05-14.36C376,184,364.67,162.6,358,157.7c-6.27-4.6-14.14-.26-17.09,3.69-8.49,11.37-14.66,22.28-19.57,59.53Z" style="fill: rgb(0, 255, 136); transform-origin: 350.176px 188.476px;" id="elf3r7wmn22g" class="animable"></path><path d="M366.11,199.32a57.58,57.58,0,0,0-8.55,1.43c-1.39.36-2.76.79-4.12,1.24-.68.23-1.37.43-2.05.63a9.28,9.28,0,0,1-2.21.42c-.06,0-.06.1,0,.11a16.72,16.72,0,0,0,2.12-.05,15.33,15.33,0,0,0,2-.39c1.42-.35,2.81-.77,4.23-1.14,2.84-.74,5.69-1.48,8.58-2C366.28,199.53,366.24,199.3,366.11,199.32Z" style="fill: rgb(38, 50, 56); transform-origin: 357.679px 201.241px;" id="elo3cpgf3rrrf" class="animable"></path><path d="M373.24,201.85a61.1,61.1,0,0,0-7.15-.32c-1.19,0-2.38.1-3.57.22-.56.06-1.13.12-1.7.2s-1.23.24-1.85.32a.05.05,0,1,0,0,.1c.59-.05,1.19,0,1.78,0l1.78,0,3.57-.1c2.38-.09,4.76-.15,7.14-.16A.1.1,0,0,0,373.24,201.85Z" style="fill: rgb(38, 50, 56); transform-origin: 366.145px 201.947px;" id="elfl4h5buszgo" class="animable"></path><path d="M340.52,161c-17.89,16.87-34.46,44.73-33.28,59.36,1.17,14.45,6.07,12.59,7.49,12.37,8.67-1.36,25.57-43.39,30.34-60.33S344.94,156.83,340.52,161Z" style="fill: rgb(211, 118, 106); transform-origin: 327.104px 195.615px;" id="elxdaulw9fcll" class="animable"></path><path d="M345.65,144.62c-3.11-.09-10.37,3.48-12.18,7.94s-.38,10.85,1.06,11.23,7-1.18,10.51-4.06S347.18,144.67,345.65,144.62Z" style="fill: rgb(38, 50, 56); transform-origin: 339.933px 154.232px;" id="elbalfwbjydgr" class="animable"></path><path d="M345.66,144.64c.09,0,.07-.21,0-.19-2.62.42-5.25,1.83-7.6,3a15.41,15.41,0,0,0-5.18,3.7,7.11,7.11,0,0,0-1.55,5.76,14.65,14.65,0,0,0,2.72,6.86c.05.05.16,0,.12-.06-2-4.12-4.08-9.23-.32-13C337,147.52,341.63,146.34,345.66,144.64Z" style="fill: rgb(38, 50, 56); transform-origin: 338.474px 154.12px;" id="elca6xqy98jav" class="animable"></path><path d="M334.75,162.58c-2.54.83-8.38,7.07-8.57,12.24s5.2,11.73,6.58,12,6.24-5.55,7.45-9.4c.82-2.56-.69-5.09-1.77-7.69C336.85,165.92,335.14,162.45,334.75,162.58Z" style="fill: rgb(38, 50, 56); transform-origin: 333.31px 174.703px;" id="el9vhbv96u8js" class="animable"></path><path d="M341.66,176.53c-.18-5.2-4-9.66-6.57-13.89a0,0,0,0,0-.08,0c1.78,4.19,5.15,7.63,6.09,12.19a8.5,8.5,0,0,1-1.81,7.64c-1.66,1.81-4,2.93-6.07,4.15-.14.08,0,.28.14.2C337.56,184.55,341.84,181.89,341.66,176.53Z" style="fill: rgb(38, 50, 56); transform-origin: 337.414px 174.739px;" id="el70ms3tb6m0v" class="animable"></path><path d="M334.27,163.15c.12-.09,0-.28-.12-.19-3.38,2.45-7.35,5.86-8.63,10-1.38,4.47,1.58,8.32,4.19,11.62,0,0,.1,0,.07,0-2.59-3.37-5.46-7.62-3.77-12C327.47,168.69,331.1,165.53,334.27,163.15Z" style="fill: rgb(38, 50, 56); transform-origin: 329.744px 173.758px;" id="elnits701w8e" class="animable"></path><path d="M333.58,185.68c-2.45,3.57-5.28,8.68-3.29,12.12s8.13,7.47,8.54,7.33,5.66-6.41,5.55-11.26S333.9,185.21,333.58,185.68Z" style="fill: rgb(38, 50, 56); transform-origin: 337px 195.387px;" id="el39rh8mb0rg" class="animable"></path><path d="M339.24,205.32c-3.58-1.46-7.92-3.65-9.4-7.51s1.35-8.56,3.38-11.55a0,0,0,0,0-.05,0c-2.34,2.89-5,7.65-3.71,11.48s6,6.83,9.74,7.77C339.28,205.48,339.31,205.35,339.24,205.32Z" style="fill: rgb(38, 50, 56); transform-origin: 334.201px 195.885px;" id="el3i9haw68dcv" class="animable"></path><path d="M338.66,204.78a11.32,11.32,0,0,0-.43,9c2.24,5.75-.35,5.89-5.23,10.67-4.14,4-2,10.06,2.2,11.2,0,0-3.47-2.45-1.18-6,2.73-4.26,14.05-5.45,15.22-13.58C350.77,205.52,338.66,204.78,338.66,204.78Z" style="fill: rgb(38, 50, 56); transform-origin: 340.071px 220.215px;" id="elc63ddnyn0w" class="animable"></path><path d="M338,208.42c0-.11-.17-.15-.19,0a8.9,8.9,0,0,0-.23,3.21c.17,1.39.86,2.61,1.12,4,.66,3.48-2.86,5.44-5.27,7.11-3.22,2.23-4.71,5.9-2.81,9.57,0,.05.11,0,.08,0a7,7,0,0,1,.55-7.21c1.48-2,4-2.88,5.71-4.58,1.2-1.17,2.24-2.59,2.08-4.34a13.4,13.4,0,0,0-.8-2.76A9.81,9.81,0,0,1,338,208.42Z" style="fill: rgb(38, 50, 56); transform-origin: 334.418px 220.327px;" id="el2n1nej523i9" class="animable"></path><path d="M339.92,204.89c-.05,0-.06.07,0,.08,3,.75,6.17,1.44,8.35,3.87,2.35,2.61,2.58,6.49,1.32,9.66-1.42,3.55-4.79,4.25-8,5.41a14,14,0,0,0-6.29,3.82c-.05.06.05.14.11.09,2.87-2.75,6.51-3.57,10.09-5a7.65,7.65,0,0,0,5-6.43C351.49,209.58,346.06,205.73,339.92,204.89Z" style="fill: rgb(38, 50, 56); transform-origin: 342.952px 216.363px;" id="el5mmv2yd42fw" class="animable"></path><path d="M341.52,140.3a1.06,1.06,0,0,0-1.07,1.82A1.06,1.06,0,0,0,341.52,140.3Z" style="fill: rgb(0, 255, 136); transform-origin: 340.985px 141.21px;" id="elv5reho7h9tj" class="animable"></path><path d="M342.92,141.69a1.06,1.06,0,0,0-1.08,1.82A1.06,1.06,0,0,0,342.92,141.69Z" style="fill: rgb(0, 255, 136); transform-origin: 342.38px 142.6px;" id="elwru6fbfnrc" class="animable"></path><path d="M344.54,142.83a1.06,1.06,0,0,0-1.07,1.82A1.06,1.06,0,0,0,344.54,142.83Z" style="fill: rgb(0, 255, 136); transform-origin: 344.005px 143.74px;" id="elen7fwlhun0v" class="animable"></path><path d="M346.26,143.72a1.06,1.06,0,0,0-1.08,1.82A1.06,1.06,0,0,0,346.26,143.72Z" style="fill: rgb(0, 255, 136); transform-origin: 345.72px 144.63px;" id="elk9eqetk96pf" class="animable"></path><path d="M348.14,144.32a1.06,1.06,0,0,0-1.07,1.82A1.06,1.06,0,0,0,348.14,144.32Z" style="fill: rgb(0, 255, 136); transform-origin: 347.605px 145.23px;" id="elkupblxknfuq" class="animable"></path><path d="M350,144.56a1.06,1.06,0,0,0-1.08,1.82A1.06,1.06,0,0,0,350,144.56Z" style="fill: rgb(0, 255, 136); transform-origin: 349.46px 145.47px;" id="ellaa9eyfawsq" class="animable"></path><path d="M346.84,159c.29,1.06,6.13,8,10.74,6,1.71-.73,1.07-6.33,1.07-6.33l1.83-9.78L348,141.54S346.72,158.52,346.84,159Z" style="fill: rgb(211, 118, 106); transform-origin: 353.656px 153.45px;" id="el1549b8vsxug" class="animable"></path><path d="M347.57,147.88a19,19,0,0,0,11.18,10.21l1.73-9.24L348,141.54S347.82,144.41,347.57,147.88Z" style="fill: rgb(38, 50, 56); transform-origin: 354.025px 149.815px;" id="el8flqwyede36" class="animable"></path><path d="M369.5,133.23c2.94,16-6.33,19.61-9.79,20.24-3.14.57-13.91,2.12-18.49-13.52s1.95-22.09,9.06-23.78S366.56,117.19,369.5,133.23Z" style="fill: rgb(211, 118, 106); transform-origin: 354.881px 134.766px;" id="el3aunyh5s1t1" class="animable"></path><path d="M364.86,131.93c-.38,0-.73-.08-1.11-.12a1.83,1.83,0,0,1-1.12-.34.57.57,0,0,1-.07-.71,1.42,1.42,0,0,1,1.37-.47,2.09,2.09,0,0,1,1.4.61A.62.62,0,0,1,364.86,131.93Z" style="fill: rgb(38, 50, 56); transform-origin: 363.976px 131.095px;" id="elws2hw8a1kda" class="animable"></path><path d="M353.88,133.18a10.22,10.22,0,0,0,1.07-.34,1.84,1.84,0,0,0,1-.56.57.57,0,0,0-.07-.7,1.45,1.45,0,0,0-1.45-.2,2.14,2.14,0,0,0-1.24.88A.62.62,0,0,0,353.88,133.18Z" style="fill: rgb(38, 50, 56); transform-origin: 354.57px 132.235px;" id="elnap37vlc85q" class="animable"></path><path d="M356.61,137.05s-.08.06-.08.1c.18,1.1.19,2.39-.76,2.88,0,0,0,.07,0,.06C357,139.77,357,138.06,356.61,137.05Z" style="fill: rgb(38, 50, 56); transform-origin: 356.305px 138.57px;" id="elf1icyxpjt97" class="animable"></path><path d="M355.48,136c-1.79.08-1.49,3.65.17,3.58S357,136,355.48,136Z" style="fill: rgb(38, 50, 56); transform-origin: 355.515px 137.791px;" id="el9k6i7ibzn9b" class="animable"></path><path d="M354.8,136.27c-.3.22-.57.61-.95.68s-.79-.27-1.1-.61c0,0-.07,0-.06,0,.05.69.37,1.36,1.11,1.41s1.11-.61,1.22-1.32C355,136.35,354.91,136.17,354.8,136.27Z" style="fill: rgb(38, 50, 56); transform-origin: 353.854px 136.997px;" id="elijwxn647v4" class="animable"></path><path d="M363.13,136.19s.09,0,.09.09c0,1.11.3,2.37,1.33,2.66,0,0,0,.07,0,.07C363.31,138.93,363,137.25,363.13,136.19Z" style="fill: rgb(38, 50, 56); transform-origin: 363.826px 137.6px;" id="elz1scfnwadjn" class="animable"></path><path d="M364,135c1.77-.27,2.18,3.29.54,3.54S362.55,135.18,364,135Z" style="fill: rgb(38, 50, 56); transform-origin: 364.33px 136.769px;" id="el2r4ql351bbb" class="animable"></path><path d="M364.8,135.1c.3.16.62.47,1,.45s.64-.43.84-.83c0,0,.06,0,.06,0,.1.68,0,1.41-.68,1.62s-1.09-.34-1.33-1C364.6,135.25,364.68,135,364.8,135.1Z" style="fill: rgb(38, 50, 56); transform-origin: 365.692px 135.553px;" id="elc25wz9xjt3p" class="animable"></path><path d="M357.64,146.26c.26.26.53.62.93.66a2.76,2.76,0,0,0,1.19-.27s.07,0,.05.06a1.51,1.51,0,0,1-1.41.59,1.19,1.19,0,0,1-.87-1A.06.06,0,0,1,357.64,146.26Z" style="fill: rgb(38, 50, 56); transform-origin: 358.672px 146.773px;" id="el64xb7vgsks9" class="animable"></path><path d="M362.08,141.8a23.28,23.28,0,0,1,.35,2.43c0,.07-.18.12-.44.14h0a3.74,3.74,0,0,1-3.68-1.21c-.06-.07,0-.16.11-.11a5.65,5.65,0,0,0,3.44.8c.05-.22-.63-2.8-.5-2.82a6.84,6.84,0,0,1,1.79.32c-.55-3.45-1.64-6.78-2.14-10.22,0-.12.16-.17.2-.06A56.35,56.35,0,0,1,364,142C364,142.43,362.4,141.92,362.08,141.8Z" style="fill: rgb(38, 50, 56); transform-origin: 361.143px 137.737px;" id="el2eow7fp5cxk" class="animable"></path><path d="M361.76,144a4.38,4.38,0,0,1-1.54,1.59,2,2,0,0,1-1.18.23c-.89-.1-1-.88-1-1.57a4.66,4.66,0,0,1,.24-1.08A5.69,5.69,0,0,0,361.76,144Z" style="fill: rgb(38, 50, 56); transform-origin: 359.9px 144.501px;" id="elkaymln789sa" class="animable"></path><path d="M360.22,145.58a2,2,0,0,1-1.18.23c-.89-.1-1-.88-1-1.57A2,2,0,0,1,360.22,145.58Z" style="fill: rgb(255, 154, 187); transform-origin: 359.13px 145.021px;" id="elcmp2eto1m4" class="animable"></path><path d="M357.64,120.31a7.26,7.26,0,0,1-.17,4.26c-1.71,3.69-6.13,2.75-7.62,4.22s-.88,4.19-2.15,5.56c-1.75,1.9-4.17,1.18-4.45,2.46s-.06,4-1.66,4.49-9.89-25.19,11.68-25.61a18.06,18.06,0,0,1,6.64.72c6.15,1.74,8.44,12.11,8.44,12.11a3.84,3.84,0,0,1-2.22-.57c-1-.9-1.42-1.73-2.17-2.3-1.18-.91-1.82-.56-3-1.44A13.86,13.86,0,0,1,357.64,120.31Z" style="fill: rgb(38, 50, 56); transform-origin: 353.521px 128.471px;" id="elea2grgx87r" class="animable"></path><path d="M357.31,119.14a14.33,14.33,0,0,1,.64,3.23,6,6,0,0,1-.42,3.15,4.41,4.41,0,0,1-2.4,1.91c-1,.37-2.1.49-3.18.93a3.38,3.38,0,0,0-1.4,1.07,4.31,4.31,0,0,0-.6,1.63A5.94,5.94,0,0,1,348.8,134a3.61,3.61,0,0,1-2.81,1.21c-1.06,0-2.23-.28-3.27.2,1.07-.39,2.16,0,3.26.06a3.92,3.92,0,0,0,3.11-1.19,5.9,5.9,0,0,0,1.32-3.11,3.94,3.94,0,0,1,.55-1.45,2.77,2.77,0,0,1,1.2-.88c1-.42,2.08-.56,3.13-1a5.55,5.55,0,0,0,1.5-.84,3.49,3.49,0,0,0,1.1-1.33,6.24,6.24,0,0,0,.31-3.36A14.76,14.76,0,0,0,357.31,119.14Z" style="fill: rgb(38, 50, 56); transform-origin: 350.511px 127.31px;" id="elrhliq0d1qi8" class="animable"></path><path d="M357.72,120.1a11.76,11.76,0,0,0,1,2.91,5.48,5.48,0,0,0,2.13,2.32,8,8,0,0,0,1.46.55,2.5,2.5,0,0,1,1.15.76,7.5,7.5,0,0,0,.92,1.24,3.39,3.39,0,0,0,1.35.77,3.69,3.69,0,0,1-1.16-.94,8.13,8.13,0,0,1-.78-1.3,2.71,2.71,0,0,0-1.31-1,8.15,8.15,0,0,1-1.37-.55,5.65,5.65,0,0,1-2-2.07A23,23,0,0,1,357.72,120.1Z" style="fill: rgb(38, 50, 56); transform-origin: 361.725px 124.375px;" id="elkzai9sjhk5p" class="animable"></path><path d="M344.47,140s-4.26-4.52-6.36-2.92,1.63,8.5,4.46,9.1a2.76,2.76,0,0,0,3.44-2Z" style="fill: rgb(211, 118, 106); transform-origin: 341.753px 141.512px;" id="el8igln9opfla" class="animable"></path><path d="M339.23,139.06c-.05,0,0,.06,0,.07,2,.49,3.25,2.08,4.21,3.79a1.53,1.53,0,0,0-2.32-.08s0,.11.07.09a1.69,1.69,0,0,1,1.93.32,7.67,7.67,0,0,1,1.11,1.36c.11.15.4,0,.31-.17a.05.05,0,0,1,0,0C344.2,142,341.84,138.92,339.23,139.06Z" style="fill: rgb(38, 50, 56); transform-origin: 341.882px 141.864px;" id="elvbjf1rww8s" class="animable"></path><path d="M365.12,164.3l-10.43,27.83c-.4.81-.06,1.54.77,1.63l14.77,1.66a2.43,2.43,0,0,0,2.23-1.29l10.43-27.83a1,1,0,0,0-.77-1.63L367.34,163A2.41,2.41,0,0,0,365.12,164.3Z" style="fill: rgb(55, 71, 79); transform-origin: 368.818px 179.21px;" id="el91oy01v0mvr" class="animable"></path><path d="M366.87,164.49l-10.43,27.82a1,1,0,0,0,.77,1.63L372,195.6a2.41,2.41,0,0,0,2.22-1.29l10.43-27.83c.4-.81.06-1.54-.77-1.63l-14.78-1.66A2.42,2.42,0,0,0,366.87,164.49Z" style="fill: rgb(69, 90, 100); transform-origin: 370.517px 179.395px;" id="elowncaktmi7" class="animable"></path><path d="M370.78,166.25a1.27,1.27,0,1,1-1.09-1.42A1.26,1.26,0,0,1,370.78,166.25Z" style="fill: rgb(38, 50, 56); transform-origin: 369.521px 166.089px;" id="el7h2pv9y1y7" class="animable"></path><path d="M312.72,232.88c6.53.31,14.12-5.44,33.61-22.55,2.69-2.36-8.9-25.88-11.91-23.5-3.79,3-17.85,15.45-18.76,16.49C308,212.1,308.29,232.67,312.72,232.88Z" style="fill: rgb(211, 118, 106); transform-origin: 328.166px 209.776px;" id="elid1o2pr8jmd" class="animable"></path><path d="M327.64,194.87s5.19-8.87,9.35-12.69a36.41,36.41,0,0,1,15.46-7.94c6.17-1.48,22.11-.81,22.72,3.82.55,4.18-15.71,2.67-15.71,2.67s16.83-1.19,16.56,4S357,187,357,187s17.32-.84,16.2,4.44c-.84,4-18,2.39-18,2.39s14.89-.62,14.2,3.52c-.76,4.58-16.68,4.09-16.68,4.09-3.53,10.23-9.39,13.66-13.86,15.6C337.78,217.54,327.64,194.87,327.64,194.87Z" style="fill: rgb(211, 118, 106); transform-origin: 351.832px 195.293px;" id="el73e7mei6pqd" class="animable"></path><path d="M353.61,180.77c2-.21,4-.44,5.95-.48s4,0,5.95.15a34.83,34.83,0,0,1,7.64,1.31c-4.51-1-11.61-.95-13.6-.91s-4,0-5.94,0A0,0,0,0,1,353.61,180.77Z" style="fill: rgb(38, 50, 56); transform-origin: 363.38px 181.013px;" id="elgxpa6bw5ssp" class="animable"></path><path d="M353.61,187.94c2.53-.16,5-.42,7.57-.47s4.93.13,7.45.25c.19,0,.13.11-.07.11-2.52,0-4.86.15-7.39.16s-5.05-.09-7.56,0A0,0,0,1,1,353.61,187.94Z" style="fill: rgb(38, 50, 56); transform-origin: 361.178px 187.726px;" id="eltpgayw8k39r" class="animable"></path><path d="M352.5,194.09a56.61,56.61,0,0,1,11.64.17c.19,0,.09.14-.11.14-3.87-.14-6.9-.27-11.51-.18C352.45,194.22,352.42,194.1,352.5,194.09Z" style="fill: rgb(38, 50, 56); transform-origin: 358.347px 194.134px;" id="el7aaaicx0bpr" class="animable"></path><path d="M309.85,218.81a29.67,29.67,0,0,1,3.91-13.31c4.43-5.78,11.47-11.06,16.88-15.95a29.86,29.86,0,0,1,6.24-7.7,24.79,24.79,0,0,1,8.59-5.07,26.86,26.86,0,0,0-8.28,5.4,33.38,33.38,0,0,0-6.12,7.88c-5.32,4.92-12.31,10.17-16.85,15.77a32.1,32.1,0,0,0-4.37,13Z" style="fill: rgb(38, 50, 56); transform-origin: 327.66px 197.805px;" id="eljbaq0otvlfd" class="animable"></path></g><g id="freepik--speech-bubble--inject-15" class="animable" style="transform-origin: 310.569px 105.606px;"><path d="M285.68,108a22.61,22.61,0,0,0,37.79,14.3L334.78,124l-5.66-9.78a22.36,22.36,0,0,0,1.56-10.89,22.62,22.62,0,0,0-45,4.71Z" style="fill: rgb(255, 255, 255); transform-origin: 310.169px 105.669px;" id="el5wsjyikebkf" class="animable"></path><path d="M292.45,89.31a22.84,22.84,0,0,1,37.08,25l0-.39,5.63,9.8.42.73-.82-.13-11.31-1.74.27-.08a22.81,22.81,0,0,1-11.19,5.53,19.31,19.31,0,0,1-3.13.32,21.92,21.92,0,0,1-3.14-.06,22.65,22.65,0,0,1-6.09-1.45,22.15,22.15,0,0,1-5.46-3,22.89,22.89,0,0,1-2.38-2,24.06,24.06,0,0,1-2.05-2.36,22.73,22.73,0,0,1,2.2-30.14Zm-2.14,30.09a20.16,20.16,0,0,0,4.45,4.33,21.13,21.13,0,0,0,5.45,2.94,22.44,22.44,0,0,0,6.05,1.33,22.76,22.76,0,0,0,3.09,0,19.81,19.81,0,0,0,3.07-.38,22.2,22.2,0,0,0,10.83-5.58l.11-.1.16,0,11.32,1.59-.4.59-5.7-9.76-.1-.18.08-.21a22.7,22.7,0,0,0,1.59-9.85,22.38,22.38,0,0,0-2.87-9.57,23.3,23.3,0,0,0-6.77-7.38,22.21,22.21,0,0,0-9.34-3.69,22.36,22.36,0,0,0-21,35.89Z" style="fill: rgb(38, 50, 56); transform-origin: 310.576px 105.606px;" id="ely3ybebuo0ma" class="animable"></path><polygon points="305.69 118.53 296.02 108.75 299.27 105.55 304.91 111.26 316.64 92.88 320.48 95.33 305.69 118.53" style="fill: rgb(0, 255, 136); transform-origin: 308.25px 105.705px;" id="elh7xmavpwyuw" class="animable"></polygon></g><g id="freepik--Bags--inject-15" class="animable animator-active" style="transform-origin: 156.685px 392.988px;"><polygon points="231.16 460.56 123.38 460.56 139.1 350.77 215.45 350.77 231.16 460.56" style="fill: rgb(55, 71, 79); transform-origin: 177.27px 405.665px;" id="elute1aiowm6b" class="animable"></polygon><polygon points="215.44 350.77 203.47 460.56 231.16 460.56 215.44 350.77" style="fill: rgb(69, 90, 100); transform-origin: 217.315px 405.665px;" id="elhctivym9qlf" class="animable"></polygon><path d="M160.6,358.34l-3.37-.71c0-.1,2-9.32,4.06-18.63,2.26-10.06,12.16-14.69,20.43-13.36,6.19,1,13.05,5.83,12,16.15-1.11,11-2,16.25-2,16.47l-3.4-.55s.86-5.34,1.95-16.26c.79-7.93-4.2-11.61-9.14-12.41-6.69-1.08-14.7,2.63-16.52,10.71C162.57,349,160.62,358.25,160.6,358.34Z" style="fill: rgb(38, 50, 56); transform-origin: 175.529px 341.878px;" id="elljo9gwj4wj" class="animable"></path><path d="M204.93,459.72c2.21-1.58,4.51-3,6.8-4.47s4.63-2.8,7-4.14l.32-.19.3.22c1.82,1.37,3.64,2.74,5.41,4.18s3.55,2.86,5.25,4.39c-2-1.18-3.86-2.44-5.74-3.73s-3.75-2.59-5.59-3.93l.61,0c-2.33,1.37-4.7,2.69-7.08,4S207.4,458.59,204.93,459.72Z" style="fill: rgb(255, 255, 255); transform-origin: 217.47px 455.32px;" id="el5ys5ic80nkb" class="animable"></path><path d="M219,451.6c-.47-7-.82-14-1.15-21s-.57-14-.85-21-.44-14-.59-21L216.22,378c0-3.5-.09-7-.08-10.52.25,3.5.42,7,.64,10.5l.52,10.51c.33,7,.56,14,.84,21s.44,14,.58,21S219,444.58,219,451.6Z" style="fill: rgb(255, 255, 255); transform-origin: 217.57px 409.54px;" id="elzmv3gjirx5j" class="animable"></path><path d="M163.49,358a4.58,4.58,0,1,1-4.57-4.57A4.58,4.58,0,0,1,163.49,358Z" style="fill: rgb(38, 50, 56); transform-origin: 158.91px 358.01px;" id="el4s7yqcucc7f" class="animable"></path><path d="M194.28,358a4.58,4.58,0,1,1-4.57-4.57A4.58,4.58,0,0,1,194.28,358Z" style="fill: rgb(38, 50, 56); transform-origin: 189.7px 358.01px;" id="ela7cohkb6o4d" class="animable"></path><polygon points="175.96 460.56 82.21 460.56 95.88 365.06 162.29 365.06 175.96 460.56" style="fill: rgb(0, 255, 136); transform-origin: 129.085px 412.81px;" id="elzq7ot7023u" class="animable"></polygon><polygon points="162.29 365.06 151.87 460.56 175.96 460.56 162.29 365.06" style="fill: rgb(0, 255, 136); transform-origin: 163.915px 412.81px;" id="elenbcys1d09" class="animable"></polygon><g id="elxt8wkc58w3h"><polygon points="162.29 365.06 151.87 460.56 175.96 460.56 162.29 365.06" style="opacity: 0.1; transform-origin: 163.915px 412.81px;" class="animable"></polygon></g><path d="M114.59,371.65l-2.94-.62c0-.08,1.72-8.11,3.54-16.2,2-8.76,10.57-12.78,17.76-11.62,5.39.87,11.36,5.07,10.46,14-1,9.61-1.7,14.14-1.73,14.33l-3-.48c0-.05.74-4.64,1.7-14.14.69-6.9-3.66-10.1-8-10.8-5.81-.94-12.78,2.29-14.36,9.32C116.3,363.56,114.6,371.57,114.59,371.65Z" style="fill: rgb(38, 50, 56); transform-origin: 127.575px 357.332px;" id="elmgyrw777bdb" class="animable"></path><path d="M153.14,459.83c1.93-1.37,3.92-2.63,5.92-3.88s4-2.45,6.08-3.61l.28-.16.25.19c1.59,1.19,3.17,2.38,4.71,3.63s3.09,2.49,4.57,3.82c-1.7-1-3.36-2.12-5-3.24s-3.26-2.26-4.86-3.42l.54,0c-2,1.19-4.09,2.34-6.17,3.46S155.29,458.85,153.14,459.83Z" style="fill: rgb(255, 255, 255); transform-origin: 164.045px 456.005px;" id="elmpe7yyk5en" class="animable"></path><path d="M165.38,452.76c-.41-6.09-.72-12.18-1-18.27s-.49-12.19-.74-18.29-.38-12.19-.51-18.29l-.17-9.15c0-3.05-.08-6.1-.07-9.15.22,3,.37,6.09.56,9.13l.45,9.14c.29,6.1.49,12.19.74,18.29s.38,12.19.5,18.29S165.38,446.66,165.38,452.76Z" style="fill: rgb(255, 255, 255); transform-origin: 164.135px 416.185px;" id="el5u5sted24mb" class="animable"></path><path d="M117.1,371.34a4,4,0,1,1-4-4A4,4,0,0,1,117.1,371.34Z" style="fill: rgb(38, 50, 56); transform-origin: 113.1px 371.34px;" id="eli7q3wdu2gl8" class="animable"></path><path d="M143.88,371.34a4,4,0,1,1-4-4A4,4,0,0,1,143.88,371.34Z" style="fill: rgb(38, 50, 56); transform-origin: 139.88px 371.34px;" id="eljun5n5t6ysg" class="animable"></path></g><defs>     <filter id="active" height="200%">         <feMorphology in="SourceAlpha" result="DILATED" operator="dilate" radius="2"></feMorphology>                <feFlood flood-color="#32DFEC" flood-opacity="1" result="PINK"></feFlood>        <feComposite in="PINK" in2="DILATED" operator="in" result="OUTLINE"></feComposite>        <feMerge>            <feMergeNode in="OUTLINE"></feMergeNode>            <feMergeNode in="SourceGraphic"></feMergeNode>        </feMerge>    </filter>    <filter id="hover" height="200%">        <feMorphology in="SourceAlpha" result="DILATED" operator="dilate" radius="2"></feMorphology>                <feFlood flood-color="#ff0000" flood-opacity="0.5" result="PINK"></feFlood>        <feComposite in="PINK" in2="DILATED" operator="in" result="OUTLINE"></feComposite>        <feMerge>            <feMergeNode in="OUTLINE"></feMergeNode>            <feMergeNode in="SourceGraphic"></feMergeNode>        </feMerge>            <feColorMatrix type="matrix" values="0   0   0   0   0                0   1   0   0   0                0   0   0   0   0                0   0   0   1   0 "></feColorMatrix>    </filter></defs></svg>